<?xml version="1.0" encoding="UTF-8"?>
<!DOCTYPE svg PUBLIC "-//W3C//DTD SVG 1.1//EN" "http://www.w3.org/Graphics/SVG/1.1/DTD/svg11.dtd">
<svg xmlns="http://www.w3.org/2000/svg" version="1.1" width="313px" height="165px" style="shape-rendering:geometricPrecision; text-rendering:geometricPrecision; image-rendering:optimizeQuality; fill-rule:evenodd; clip-rule:evenodd" xmlns:xlink="http://www.w3.org/1999/xlink">
<g><path style="opacity:1" fill="#fefefe" d="M -0.5,-0.5 C 103.833,-0.5 208.167,-0.5 312.5,-0.5C 312.5,54.5 312.5,109.5 312.5,164.5C 208.167,164.5 103.833,164.5 -0.5,164.5C -0.5,109.5 -0.5,54.5 -0.5,-0.5 Z"/></g>
<g><path style="opacity:1" fill="#90c5dd" d="M 118.5,28.5 C 170.833,28.5 223.167,28.5 275.5,28.5C 275.5,43.1667 275.5,57.8333 275.5,72.5C 277.099,72.2322 278.432,72.5655 279.5,73.5C 278.833,73.5 278.5,73.8333 278.5,74.5C 278.167,74.5 277.833,74.5 277.5,74.5C 276.791,73.596 275.791,73.2627 274.5,73.5C 273.508,73.3284 272.842,73.6618 272.5,74.5C 271.957,74.44 271.624,74.1067 271.5,73.5C 272.325,72.6143 273.325,72.281 274.5,72.5C 274.5,58.1667 274.5,43.8333 274.5,29.5C 222.833,29.5 171.167,29.5 119.5,29.5C 118.833,29.5 118.5,29.1667 118.5,28.5 Z"/></g>
<g><path style="opacity:1" fill="#1894cf" d="M 117.5,28.5 C 117.5,63.1667 117.5,97.8333 117.5,132.5C 89.1667,132.5 60.8333,132.5 32.5,132.5C 32.5,97.8333 32.5,63.1667 32.5,28.5C 60.8333,28.5 89.1667,28.5 117.5,28.5 Z"/></g>
<g><path style="opacity:1" fill="#68b7dc" d="M 117.5,28.5 C 117.833,28.5 118.167,28.5 118.5,28.5C 118.5,29.1667 118.833,29.5 119.5,29.5C 119.5,64.1667 119.5,98.8333 119.5,133.5C 119.167,133.5 118.833,133.5 118.5,133.5C 89.6618,133.831 60.9951,133.498 32.5,132.5C 60.8333,132.5 89.1667,132.5 117.5,132.5C 117.5,97.8333 117.5,63.1667 117.5,28.5 Z"/></g>
<g><path style="opacity:1" fill="#1390cb" d="M 119.5,29.5 C 171.167,29.5 222.833,29.5 274.5,29.5C 274.5,43.8333 274.5,58.1667 274.5,72.5C 273.325,72.281 272.325,72.6143 271.5,73.5C 271.624,74.1067 271.957,74.44 272.5,74.5C 272.8,79.0986 272.467,83.5986 271.5,88C 272.448,88.4828 273.448,88.6495 274.5,88.5C 274.5,103.5 274.5,118.5 274.5,133.5C 222.833,133.5 171.167,133.5 119.5,133.5C 119.5,98.8333 119.5,64.1667 119.5,29.5 Z"/></g>
<g><path style="opacity:1" fill="#fdfdfe" d="M 112.5,33.5 C 112.5,64.8333 112.5,96.1667 112.5,127.5C 87.5,127.5 62.5,127.5 37.5,127.5C 37.5,96.1667 37.5,64.8333 37.5,33.5C 62.5,33.5 87.5,33.5 112.5,33.5 Z"/></g>
<g><path style="opacity:1" fill="#c3d8e2" d="M 113.5,33.5 C 113.167,33.5 112.833,33.5 112.5,33.5C 87.5,33.5 62.5,33.5 37.5,33.5C 37.5,64.8333 37.5,96.1667 37.5,127.5C 37.5,127.833 37.5,128.167 37.5,128.5C 36.5018,96.671 36.1684,64.671 36.5,32.5C 62.3388,32.1689 88.0054,32.5022 113.5,33.5 Z"/></g>
<g><path style="opacity:1" fill="#83cefd" d="M 73.5,115.5 C 70.4824,115.296 67.4824,114.963 64.5,114.5C 53.1188,109.583 48.6188,100.916 51,88.5C 54.8058,70.0251 64.6391,55.8585 80.5,46C 88.8146,44.4056 95.6479,46.9056 101,53.5C 101.667,55.1667 101.667,56.8333 101,58.5C 100.282,59.4506 99.4491,59.6172 98.5,59C 97.6057,54.432 94.939,52.7653 90.5,54C 85.3333,57.8333 80.8333,62.3333 77,67.5C 72.757,75.8877 69.0903,84.5544 66,93.5C 65.0683,98.9894 65.5683,104.323 67.5,109.5C 70.8757,110.711 74.209,110.544 77.5,109C 91.3877,96.5033 97.0544,81.0033 94.5,62.5C 97.2281,61.0598 99.3948,61.7265 101,64.5C 102.022,84.9502 94.5224,101.45 78.5,114C 76.9751,115.009 75.3084,115.509 73.5,115.5 Z"/></g>
<g><path style="opacity:1" fill="#8cc3de" d="M 161.5,73.5 C 160.833,73.5 160.5,73.8333 160.5,74.5C 158.833,74.5 157.167,74.5 155.5,74.5C 154.791,73.596 153.791,73.2627 152.5,73.5C 154.906,72.2028 157.906,72.2028 161.5,73.5 Z"/></g>
<g><path style="opacity:1" fill="#a5cbdd" d="M 183.5,75.5 C 182.662,75.8417 182.328,76.5084 182.5,77.5C 180.29,73.1971 177.29,72.5305 173.5,75.5C 173.5,74.8333 173.167,74.5 172.5,74.5C 173.492,72.9735 174.992,72.3068 177,72.5C 179.802,72.3199 181.969,73.3199 183.5,75.5 Z"/></g>
<g><path style="opacity:1" fill="#8ac1dc" d="M 214.5,87.5 C 213.834,82.9834 213.167,78.3167 212.5,73.5C 211.893,73.6236 211.56,73.9569 211.5,74.5C 209.533,74.2606 207.699,74.5939 206,75.5C 205.517,74.552 205.351,73.552 205.5,72.5C 210.167,72.5 214.833,72.5 219.5,72.5C 219.649,73.552 219.483,74.552 219,75.5C 217.644,74.6198 216.144,74.2865 214.5,74.5C 214.5,78.8333 214.5,83.1667 214.5,87.5 Z"/></g>
<g><path style="opacity:1" fill="#93bfd4" d="M 225.5,73.5 C 227.833,72.1667 230.167,72.1667 232.5,73.5C 232.167,73.5 231.833,73.5 231.5,73.5C 229.708,73.366 228.042,73.6993 226.5,74.5C 226.5,73.8333 226.167,73.5 225.5,73.5 Z"/></g>
<g><path style="opacity:1" fill="#fbfcfd" d="M 152.5,74.5 C 152.5,74.1667 152.5,73.8333 152.5,73.5C 153.791,73.2627 154.791,73.596 155.5,74.5C 154.675,78.6472 154.175,82.9805 154,87.5C 153.825,82.9805 153.325,78.6472 152.5,74.5 Z"/></g>
<g><path style="opacity:1" fill="#7dbddc" d="M 265.5,73.5 C 264.833,73.5 264.5,73.8333 264.5,74.5C 263.5,74.5 262.5,74.5 261.5,74.5C 261.5,76.5 261.5,78.5 261.5,80.5C 260.835,78.3021 260.168,75.9688 259.5,73.5C 258.893,73.6236 258.56,73.9569 258.5,74.5C 258.167,74.5 257.833,74.5 257.5,74.5C 258.334,73.2521 259.667,72.5854 261.5,72.5C 263.045,72.5108 264.378,72.8442 265.5,73.5 Z"/></g>
<g><path style="opacity:1" fill="#e9eced" d="M 214.5,87.5 C 213.399,88.5983 212.066,88.765 210.5,88C 211.467,83.5986 211.8,79.0986 211.5,74.5C 211.56,73.9569 211.893,73.6236 212.5,73.5C 213.167,78.3167 213.834,82.9834 214.5,87.5 Z"/></g>
<g><path style="opacity:1" fill="#4ca4d3" d="M 231.5,73.5 C 233.978,76.3291 234.978,79.6625 234.5,83.5C 234.167,83.5 233.833,83.5 233.5,83.5C 233.781,79.769 232.281,77.1023 229,75.5C 225.554,76.9565 224.054,79.6232 224.5,83.5C 222.91,80.0564 223.576,77.0564 226.5,74.5C 228.042,73.6993 229.708,73.366 231.5,73.5 Z"/></g>
<g><path style="opacity:1" fill="#f4f7f8" d="M 274.5,73.5 C 274.5,78.5 274.5,83.5 274.5,88.5C 273.448,88.6495 272.448,88.4828 271.5,88C 272.467,83.5986 272.8,79.0986 272.5,74.5C 272.842,73.6618 273.508,73.3284 274.5,73.5 Z"/></g>
<g><path style="opacity:1" fill="#f7f8f9" d="M 277.5,74.5 C 277.833,74.5 278.167,74.5 278.5,74.5C 279.613,75.9464 279.78,77.6131 279,79.5C 277.989,80.3366 276.822,80.67 275.5,80.5C 275.025,77.9179 275.692,75.9179 277.5,74.5 Z"/></g>
<g><path style="opacity:1" fill="#b3cdda" d="M 152.5,74.5 C 153.325,78.6472 153.825,82.9805 154,87.5C 154.175,82.9805 154.675,78.6472 155.5,74.5C 155.5,78.8333 155.5,83.1667 155.5,87.5C 156.833,87.5 158.167,87.5 159.5,87.5C 159.5,87.8333 159.5,88.1667 159.5,88.5C 157.167,88.5 154.833,88.5 152.5,88.5C 152.5,83.8333 152.5,79.1667 152.5,74.5 Z"/></g>
<g><path style="opacity:1" fill="#1f94cd" d="M 155.5,74.5 C 157.167,74.5 158.833,74.5 160.5,74.5C 163.795,75.1364 165.128,77.1364 164.5,80.5C 164.75,84.2442 163.083,86.5776 159.5,87.5C 158.167,87.5 156.833,87.5 155.5,87.5C 155.5,83.1667 155.5,78.8333 155.5,74.5 Z"/></g>
<g><path style="opacity:1" fill="#2094cd" d="M 182.5,77.5 C 182.689,81.037 182.023,84.3703 180.5,87.5C 178.833,87.5 177.167,87.5 175.5,87.5C 174.542,87.0472 173.708,86.3805 173,85.5C 172.253,82.0764 172.42,78.7431 173.5,75.5C 177.29,72.5305 180.29,73.1971 182.5,77.5 Z"/></g>
<g><path style="opacity:1" fill="#1591cc" d="M 233.5,83.5 C 232.078,87.4641 229.411,88.4641 225.5,86.5C 224.89,85.609 224.557,84.609 224.5,83.5C 224.054,79.6232 225.554,76.9565 229,75.5C 232.281,77.1023 233.781,79.769 233.5,83.5 Z"/></g>
<g><path style="opacity:1" fill="#ddeaf1" d="M 143.5,88.5 C 142.833,88.5 142.5,88.1667 142.5,87.5C 143.458,87.0472 144.292,86.3805 145,85.5C 145.667,82.1667 145.667,78.8333 145,75.5C 139.287,72.0191 136.121,73.6857 135.5,80.5C 135.561,83.6276 136.894,85.9609 139.5,87.5C 139.5,88.1667 139.167,88.5 138.5,88.5C 136.248,88.0844 134.748,86.751 134,84.5C 132.336,75.8338 135.836,72.0004 144.5,73C 148.277,75.9547 149.443,79.788 148,84.5C 146.951,86.3844 145.451,87.7177 143.5,88.5 Z"/></g>
<g><path style="opacity:1" fill="#1f94cd" d="M 142.5,87.5 C 141.5,87.5 140.5,87.5 139.5,87.5C 136.894,85.9609 135.561,83.6276 135.5,80.5C 136.121,73.6857 139.287,72.0191 145,75.5C 145.667,78.8333 145.667,82.1667 145,85.5C 144.292,86.3805 143.458,87.0472 142.5,87.5 Z"/></g>
<g><path style="opacity:1" fill="#bfcdd3" d="M 189.5,74.5 C 190.338,74.8417 190.672,75.5084 190.5,76.5C 190.207,80.4367 190.54,84.27 191.5,88C 190.563,88.6917 189.897,88.525 189.5,87.5C 189.5,83.1667 189.5,78.8333 189.5,74.5 Z"/></g>
<g><path style="opacity:1" fill="#a3c7d8" d="M 200.5,87.5 C 201.686,86.2946 201.686,84.9613 200.5,83.5C 201.788,80.2999 201.788,76.9666 200.5,73.5C 200.833,73.1667 201.167,72.8333 201.5,72.5C 202.833,77.8333 202.833,83.1667 201.5,88.5C 200.893,88.3764 200.56,88.0431 200.5,87.5 Z"/></g>
<g><path style="opacity:1" fill="#e7f0f4" d="M 225.5,73.5 C 226.167,73.5 226.5,73.8333 226.5,74.5C 223.576,77.0564 222.91,80.0564 224.5,83.5C 224.557,84.609 224.89,85.609 225.5,86.5C 225.5,87.1667 225.167,87.5 224.5,87.5C 221.647,84.4497 220.813,80.7831 222,76.5C 223.039,75.2899 224.206,74.2899 225.5,73.5 Z"/></g>
<g><path style="opacity:1" fill="#45a0cf" d="M 190.5,76.5 C 192.167,77.5 193.5,78.8333 194.5,80.5C 192.612,82.9878 191.945,85.9878 192.5,89.5C 190.712,89.7852 189.045,89.4519 187.5,88.5C 187.957,87.7025 188.624,87.3691 189.5,87.5C 189.897,88.525 190.563,88.6917 191.5,88C 190.54,84.27 190.207,80.4367 190.5,76.5 Z"/></g>
<g><path style="opacity:1" fill="#ebf1f4" d="M 231.5,73.5 C 231.833,73.5 232.167,73.5 232.5,73.5C 236.567,76.5947 237.567,80.5947 235.5,85.5C 234.662,85.1583 234.328,84.4916 234.5,83.5C 234.978,79.6625 233.978,76.3291 231.5,73.5 Z"/></g>
<g><path style="opacity:1" fill="#2c9ad0" d="M 246.5,77.5 C 247.11,78.391 247.443,79.391 247.5,80.5C 247.38,81.5862 246.713,82.2528 245.5,82.5C 243.438,80.8052 243.771,79.1386 246.5,77.5 Z"/></g>
<g><path style="opacity:1" fill="#e5eff3" d="M 251.5,83.5 C 252.153,84.8068 252.82,86.1401 253.5,87.5C 252.675,88.3857 251.675,88.719 250.5,88.5C 250.737,87.209 250.404,86.209 249.5,85.5C 249.672,84.5084 249.338,83.8417 248.5,83.5C 248.737,82.209 248.404,81.209 247.5,80.5C 247.443,79.391 247.11,78.391 246.5,77.5C 245.89,76.609 245.557,75.609 245.5,74.5C 245.639,72.663 246.306,72.3296 247.5,73.5C 249.037,76.7825 250.37,80.1158 251.5,83.5 Z"/></g>
<g><path style="opacity:1" fill="#45a3d5" d="M 278.5,74.5 C 278.5,73.8333 278.833,73.5 279.5,73.5C 280.496,73.4142 281.329,73.7476 282,74.5C 283.167,79.8353 281,82.1686 275.5,81.5C 275.5,81.1667 275.5,80.8333 275.5,80.5C 276.822,80.67 277.989,80.3366 279,79.5C 279.78,77.6131 279.613,75.9464 278.5,74.5 Z"/></g>
<g><path style="opacity:1" fill="#a8cee0" d="M 245.5,74.5 C 245.557,75.609 245.89,76.609 246.5,77.5C 243.771,79.1386 243.438,80.8052 245.5,82.5C 246.713,82.2528 247.38,81.5862 247.5,80.5C 248.404,81.209 248.737,82.209 248.5,83.5C 246.473,83.3379 244.473,83.5045 242.5,84C 241.91,85.5095 241.244,87.0095 240.5,88.5C 240.167,88.1667 239.833,87.8333 239.5,87.5C 241.275,82.9563 243.275,78.6229 245.5,74.5 Z"/></g>
<g><path style="opacity:1" fill="#e9eff2" d="M 261.5,80.5 C 262.822,80.67 263.989,80.3366 265,79.5C 265.78,77.6131 265.613,75.9464 264.5,74.5C 264.5,73.8333 264.833,73.5 265.5,73.5C 266.496,73.4142 267.329,73.7476 268,74.5C 268.996,80.3339 266.496,82.6673 260.5,81.5C 260.205,83.7354 260.539,85.7354 261.5,87.5C 260.399,88.5983 259.066,88.765 257.5,88C 258.467,83.5986 258.8,79.0986 258.5,74.5C 258.56,73.9569 258.893,73.6236 259.5,73.5C 260.168,75.9688 260.835,78.3021 261.5,80.5 Z"/></g>
<g><path style="opacity:1" fill="#1a93cd" d="M 264.5,74.5 C 265.613,75.9464 265.78,77.6131 265,79.5C 263.989,80.3366 262.822,80.67 261.5,80.5C 261.5,78.5 261.5,76.5 261.5,74.5C 262.5,74.5 263.5,74.5 264.5,74.5 Z"/></g>
<g><path style="opacity:1" fill="#c7d6dd" d="M 274.5,73.5 C 275.791,73.2627 276.791,73.596 277.5,74.5C 275.692,75.9179 275.025,77.9179 275.5,80.5C 275.5,80.8333 275.5,81.1667 275.5,81.5C 275.16,84.1441 275.827,86.4775 277.5,88.5C 277.043,89.2975 276.376,89.6309 275.5,89.5C 275.5,88.8333 275.167,88.5 274.5,88.5C 274.5,83.5 274.5,78.5 274.5,73.5 Z"/></g>
<g><path style="opacity:1" fill="#dbe9f0" d="M 160.5,74.5 C 160.5,73.8333 160.833,73.5 161.5,73.5C 167.492,75.7116 168.992,79.7116 166,85.5C 164.266,87.4506 162.099,88.4506 159.5,88.5C 159.5,88.1667 159.5,87.8333 159.5,87.5C 163.083,86.5776 164.75,84.2442 164.5,80.5C 165.128,77.1364 163.795,75.1364 160.5,74.5 Z"/></g>
<g><path style="opacity:1" fill="#e1ecf2" d="M 172.5,74.5 C 173.167,74.5 173.5,74.8333 173.5,75.5C 172.42,78.7431 172.253,82.0764 173,85.5C 173.708,86.3805 174.542,87.0472 175.5,87.5C 175.5,88.1667 175.167,88.5 174.5,88.5C 169.97,85.7173 168.47,81.7173 170,76.5C 170.708,75.6195 171.542,74.9528 172.5,74.5 Z"/></g>
<g><path style="opacity:1" fill="#e3eef3" d="M 183.5,75.5 C 186.51,80.1064 185.843,84.1064 181.5,87.5C 181.167,87.5 180.833,87.5 180.5,87.5C 182.023,84.3703 182.689,81.037 182.5,77.5C 182.328,76.5084 182.662,75.8417 183.5,75.5 Z"/></g>
<g><path style="opacity:1" fill="#e7f0f5" d="M 200.5,83.5 C 201.686,84.9613 201.686,86.2946 200.5,87.5C 198.471,85.1415 196.471,82.8082 194.5,80.5C 193.5,78.8333 192.167,77.5 190.5,76.5C 190.672,75.5084 190.338,74.8417 189.5,74.5C 188.711,74.2172 188.044,73.7172 187.5,73C 188.944,72.2195 190.277,72.3861 191.5,73.5C 194.551,76.879 197.551,80.2123 200.5,83.5 Z"/></g>
<g><path style="opacity:1" fill="#40a0d0" d="M 257.5,74.5 C 257.833,74.5 258.167,74.5 258.5,74.5C 258.8,79.0986 258.467,83.5986 257.5,88C 259.066,88.765 260.399,88.5983 261.5,87.5C 262.376,87.3691 263.043,87.7025 263.5,88.5C 258.5,89.8333 253.5,89.8333 248.5,88.5C 249.127,87.5832 249.461,86.5832 249.5,85.5C 250.404,86.209 250.737,87.209 250.5,88.5C 251.675,88.719 252.675,88.3857 253.5,87.5C 252.82,86.1401 252.153,84.8068 251.5,83.5C 253.132,84.4457 254.799,85.4457 256.5,86.5C 257.491,82.5546 257.824,78.5546 257.5,74.5 Z"/></g>
<g><path style="opacity:1" fill="#71b8d9" d="M 139.5,87.5 C 140.5,87.5 141.5,87.5 142.5,87.5C 142.5,88.1667 142.833,88.5 143.5,88.5C 141.833,89.8333 140.167,89.8333 138.5,88.5C 139.167,88.5 139.5,88.1667 139.5,87.5 Z"/></g>
<g><path style="opacity:1" fill="#7abbdb" d="M 175.5,87.5 C 177.167,87.5 178.833,87.5 180.5,87.5C 180.833,87.5 181.167,87.5 181.5,87.5C 179.345,89.534 177.012,89.8674 174.5,88.5C 175.167,88.5 175.5,88.1667 175.5,87.5 Z"/></g>
<g><path style="opacity:1" fill="#93c6e0" d="M 233.5,83.5 C 233.833,83.5 234.167,83.5 234.5,83.5C 234.328,84.4916 234.662,85.1583 235.5,85.5C 232.405,89.7868 228.739,90.4535 224.5,87.5C 225.167,87.5 225.5,87.1667 225.5,86.5C 229.411,88.4641 232.078,87.4641 233.5,83.5 Z"/></g>
<g><path style="opacity:1" fill="#bee2f5" d="M 64.5,114.5 C 67.4824,114.963 70.4824,115.296 73.5,115.5C 70.3726,116.815 67.3726,116.482 64.5,114.5 Z"/></g>
<g><path style="opacity:1" fill="#dbe7ec" d="M 112.5,33.5 C 112.833,33.5 113.167,33.5 113.5,33.5C 113.5,65.1667 113.5,96.8333 113.5,128.5C 88.1667,128.5 62.8333,128.5 37.5,128.5C 37.5,128.167 37.5,127.833 37.5,127.5C 62.5,127.5 87.5,127.5 112.5,127.5C 112.5,96.1667 112.5,64.8333 112.5,33.5 Z"/></g>
<g><path style="opacity:1" fill="#b0cfdf" d="M 274.5,88.5 C 275.167,88.5 275.5,88.8333 275.5,89.5C 275.5,104.5 275.5,119.5 275.5,134.5C 222.997,134.832 170.664,134.499 118.5,133.5C 118.833,133.5 119.167,133.5 119.5,133.5C 171.167,133.5 222.833,133.5 274.5,133.5C 274.5,118.5 274.5,103.5 274.5,88.5 Z"/></g>
</svg>
