<?xml version="1.0" encoding="UTF-8"?>
<!DOCTYPE svg PUBLIC "-//W3C//DTD SVG 1.1//EN" "http://www.w3.org/Graphics/SVG/1.1/DTD/svg11.dtd">
<svg xmlns="http://www.w3.org/2000/svg" version="1.1" width="116px" height="142px" style="shape-rendering:geometricPrecision; text-rendering:geometricPrecision; image-rendering:optimizeQuality; fill-rule:evenodd; clip-rule:evenodd" xmlns:xlink="http://www.w3.org/1999/xlink">
<g><path style="opacity:1" fill="#edf4f7" d="M -0.5,-0.5 C 0.166667,-0.5 0.833333,-0.5 1.5,-0.5C 1.5,0.166667 1.5,0.833333 1.5,1.5C 1.5,47.5 1.5,93.5 1.5,139.5C 1.5,140.167 1.5,140.833 1.5,141.5C 0.833333,141.5 0.166667,141.5 -0.5,141.5C -0.5,94.1667 -0.5,46.8333 -0.5,-0.5 Z"/></g>
<g><path style="opacity:1" fill="#c4dce6" d="M 1.5,-0.5 C 39.5,-0.5 77.5,-0.5 115.5,-0.5C 115.5,0.166667 115.5,0.833333 115.5,1.5C 115.167,1.5 114.833,1.5 114.5,1.5C 76.8333,1.5 39.1667,1.5 1.5,1.5C 1.5,0.833333 1.5,0.166667 1.5,-0.5 Z"/></g>
<g><path style="opacity:1" fill="#1497d5" d="M 1.5,1.5 C 39.1667,1.5 76.8333,1.5 114.5,1.5C 114.5,1.83333 114.5,2.16667 114.5,2.5C 77.1667,2.5 39.8333,2.5 2.5,2.5C 2.5,47.8333 2.5,93.1667 2.5,138.5C 39.8333,138.5 77.1667,138.5 114.5,138.5C 77.0037,139.498 39.337,139.832 1.5,139.5C 1.5,93.5 1.5,47.5 1.5,1.5 Z"/></g>
<g><path style="opacity:1" fill="#1792cc" d="M 114.5,2.5 C 114.5,47.8333 114.5,93.1667 114.5,138.5C 77.1667,138.5 39.8333,138.5 2.5,138.5C 2.5,93.1667 2.5,47.8333 2.5,2.5C 39.8333,2.5 77.1667,2.5 114.5,2.5 Z"/></g>
<g><path style="opacity:1" fill="#fdfefe" d="M 108.5,7.5 C 108.5,49.5 108.5,91.5 108.5,133.5C 75.1667,133.5 41.8333,133.5 8.5,133.5C 8.5,91.5 8.5,49.5 8.5,7.5C 41.8333,7.5 75.1667,7.5 108.5,7.5 Z"/></g>
<g><path style="opacity:1" fill="#c2d8e2" d="M 109.5,7.5 C 109.167,7.5 108.833,7.5 108.5,7.5C 75.1667,7.5 41.8333,7.5 8.5,7.5C 8.5,49.5 8.5,91.5 8.5,133.5C 8.5,133.833 8.5,134.167 8.5,134.5C 6.50539,92.1797 5.83873,49.5131 6.5,6.5C 41.0041,6.16832 75.3374,6.50165 109.5,7.5 Z"/></g>
<g><path style="opacity:1" fill="#a7d6ef" d="M 77.5,25.5 C 72.4635,25.4126 67.4635,25.746 62.5,26.5C 65.0561,24.5553 68.0561,23.5553 71.5,23.5C 73.9522,23.5391 75.9522,24.2057 77.5,25.5 Z"/></g>
<g><path style="opacity:1" fill="#81cdfd" d="M 77.5,25.5 C 79.9267,25.523 82.26,26.023 84.5,27C 87.6235,29.1205 90.4568,31.6205 93,34.5C 93.6667,36.8333 93.6667,39.1667 93,41.5C 91.9887,42.3366 90.8221,42.67 89.5,42.5C 89.6923,39.1909 88.3589,36.6909 85.5,35C 81.4176,34.3591 77.751,35.3591 74.5,38C 71.3333,41.1667 68.1667,44.3333 65,47.5C 62.0613,53.6588 58.5613,59.4921 54.5,65C 51.2784,73.0788 48.6117,81.2455 46.5,89.5C 45.3493,94.6503 45.1826,99.9836 46,105.5C 46.1216,107.437 46.955,108.77 48.5,109.5C 48.6107,110.117 48.944,110.617 49.5,111C 53.2613,111.738 56.9279,111.405 60.5,110C 63.0176,107.149 65.851,104.649 69,102.5C 71.8495,99.3065 74.3495,95.8065 76.5,92C 79.7174,85.02 82.5507,77.8534 85,70.5C 85.7047,62.1389 85.5381,53.8056 84.5,45.5C 88.3153,44.8285 91.1486,46.1619 93,49.5C 93.8478,57.9205 93.3478,66.2539 91.5,74.5C 88.9436,80.2302 86.6102,86.0636 84.5,92C 82.3333,95.1667 80.1667,98.3333 78,101.5C 74.8333,104.667 71.6667,107.833 68.5,111C 66.2112,113.111 63.5445,114.611 60.5,115.5C 56.6295,116.799 52.6295,117.466 48.5,117.5C 43.222,115.528 38.222,113.028 33.5,110C 32.2699,107.661 30.9366,105.494 29.5,103.5C 28.3614,98.7129 27.3614,93.8795 26.5,89C 27.2668,84.4932 27.9334,79.9932 28.5,75.5C 28.6074,71.9019 29.2741,68.4019 30.5,65C 33.0151,60.0804 35.5151,55.2471 38,50.5C 42.8072,43.3957 48.3072,36.8957 54.5,31C 57.0726,29.3894 59.7393,27.8894 62.5,26.5C 67.4635,25.746 72.4635,25.4126 77.5,25.5 Z"/></g>
<g><path style="opacity:1" fill="#a4d9f6" d="M 28.5,75.5 C 27.9334,79.9932 27.2668,84.4932 26.5,89C 27.3614,93.8795 28.3614,98.7129 29.5,103.5C 28.1716,102.493 27.1716,101.16 26.5,99.5C 25.4054,92.5307 25.2387,85.5307 26,78.5C 26.2355,76.8807 27.0689,75.8807 28.5,75.5 Z"/></g>
<g><path style="opacity:1" fill="#d7ebf5" d="M 46.5,89.5 C 46.5635,96.2411 47.2302,102.908 48.5,109.5C 46.955,108.77 46.1216,107.437 46,105.5C 45.1826,99.9836 45.3493,94.6503 46.5,89.5 Z"/></g>
<g><path style="opacity:1" fill="#c1e3f5" d="M 60.5,115.5 C 60.1193,116.931 59.1193,117.764 57.5,118C 54.3035,118.805 51.3035,118.638 48.5,117.5C 52.6295,117.466 56.6295,116.799 60.5,115.5 Z"/></g>
<g><path style="opacity:1" fill="#dbe7ec" d="M 108.5,7.5 C 108.833,7.5 109.167,7.5 109.5,7.5C 109.5,49.8333 109.5,92.1667 109.5,134.5C 75.8333,134.5 42.1667,134.5 8.5,134.5C 8.5,134.167 8.5,133.833 8.5,133.5C 41.8333,133.5 75.1667,133.5 108.5,133.5C 108.5,91.5 108.5,49.5 108.5,7.5 Z"/></g>
<g><path style="opacity:1" fill="#8ec7e1" d="M 114.5,1.5 C 114.833,1.5 115.167,1.5 115.5,1.5C 115.5,48.1667 115.5,94.8333 115.5,141.5C 77.5,141.5 39.5,141.5 1.5,141.5C 1.5,140.833 1.5,140.167 1.5,139.5C 39.337,139.832 77.0037,139.498 114.5,138.5C 114.5,93.1667 114.5,47.8333 114.5,2.5C 114.5,2.16667 114.5,1.83333 114.5,1.5 Z"/></g>
</svg>
